<svg id="Layer_2" data-name="Layer 2" xmlns="http://www.w3.org/2000/svg" viewBox="0 0 1080 1080"  >
  <defs>
    <style>
      .cls-1 {
        fill: #08b166;
        stroke: #1d1d1b;
        stroke-linecap: round;
        stroke-linejoin: round;
        stroke-width: 4.47px;
      }
    </style>
  </defs>
  <title>Afrocomb by Minne</title>
  <path class="cls-1" d="M731.43,650.11c-5.12-12-24.88-61.31-15.29-85.35,11-27.52,15.38-77.05,4.4-105.94s-17.58-83.91-3.3-130.69,11.57-123.78.36-156.39c-14.64-42.65-23.42-65.11-23.42-65.11V108s-8.79,22.47-23.42,65.12c-11.2,32.62-13.91,109.62.36,156.39s7.69,101.8-3.29,130.71-6.6,78.42,4.39,105.93c1.95,4.87,2.69,10.79,2.59,17.24a217.94,217.94,0,0,0-34.51-22.24c10-28.08,13.55-74.66,3-102.32-11-28.88-17.56-83.91-3.29-130.69s11.56-123.78.36-156.39C625.77,129.09,617,106.63,617,106.63V108s-8.78,22.47-23.41,65.12c-11.21,32.62-13.92,109.62.35,156.39s7.69,101.8-3.29,130.71c-8.23,21.69-7.81,55-2.46,81.92-6.29-1.44-12.7-2.58-19.19-3.44,5-26.52,5.19-58.73-2.85-79.87-11-28.88-17.56-83.91-3.28-130.69s11.55-123.78.35-156.39c-14.63-42.65-23.41-65.11-23.41-65.11V108s-8.8,22.47-23.43,65.12c-11.2,32.62-13.92,109.62.36,156.39s7.68,101.8-3.3,130.71c-7.9,20.79-7.83,52.3-3.08,78.57-6.52.9-13,2.06-19.27,3.51,5.66-27.16,6.27-61.36-2.14-83.47-11-28.88-17.57-83.91-3.3-130.69s11.56-123.78.37-156.39c-14.64-42.65-23.42-65.11-23.42-65.11V108s-8.78,22.47-23.43,65.12c-11.2,32.62-13.91,109.62.37,156.39s7.68,101.8-3.3,130.71c-10.39,27.34-7,73.21,2.69,101.35a217.78,217.78,0,0,0-34.11,22.14c-.27-7.09.41-13.63,2.54-18.94,11-27.52,15.36-77.05,4.38-105.94s-17.57-83.91-3.29-130.69,11.56-123.78.37-156.39c-14.65-42.65-23.42-65.11-23.42-65.11V108s-8.79,22.47-23.44,65.12c-11.19,32.62-13.9,109.62.38,156.39S370,431.3,359,460.21s-6.59,78.42,4.39,105.93c9.06,22.7-8,67.88-14.3,83a217.15,217.15,0,0,0-27.4,105.94c0,120.57,97.74,218.3,218.31,218.3S758.3,875.65,758.3,755.08A217,217,0,0,0,731.43,650.11Z"/>
  <path class="cls-1" d="M667.64,811A79.54,79.54,0,0,1,544,903.27,79.56,79.56,0,0,1,418.7,815.39a79.54,79.54,0,0,1,41.83-147.2h1.08a79.54,79.54,0,0,1,159.08,0A79.54,79.54,0,0,1,667.64,811Z"/>
  <circle class="cls-1" cx="542.45" cy="768.13" r="62"/>
</svg>